<?xml version="1.0" encoding="utf-8"?>
<!-- Generator: Adobe Illustrator 16.0.0, SVG Export Plug-In . SVG Version: 6.00 Build 0)  -->
<!DOCTYPE svg PUBLIC "-//W3C//DTD SVG 1.1//EN" "http://www.w3.org/Graphics/SVG/1.1/DTD/svg11.dtd">
<svg version="1.1" xmlns="http://www.w3.org/2000/svg" xmlns:xlink="http://www.w3.org/1999/xlink" x="0px" y="0px"
	 width="246.67px" height="203.8px" viewBox="0 0 246.67 203.8" style="enable-background:new 0 0 246.67 203.8;"
	 xml:space="preserve">
<style type="text/css">
<![CDATA[
	.st0{fill:#E50053;}
	.st1{fill:#E7E7E7;}
	.st2{fill:#B1B1B1;}
	.st3{fill:#878787;}
	.st4{fill:#EB5D0B;}
	.st5{fill:#EDC298;}
	.st6{fill:#8A8B8B;}
	.st7{fill:#F49800;}
	.st8{fill:#F5F5F5;}
	.st9{clip-path:url(#SVGID_6_);}
	.st10{opacity:0.2;fill:#FFFFFF;}
	.st11{fill:url(#SVGID_2_);}
	.st12{fill:url(#SVGID_3_);}
	.st13{fill:url(#SVGID_4_);}
	.st14{fill:#C4C5C5;}
	.st15{fill:#970735;}
	.st16{fill:#C6C6C5;}
	.st17{fill:#FCC000;}
	.st18{opacity:0.6;}
	.st19{fill:#FFCA68;}
	.st20{fill:#FFFFFF;}
	.st21{fill:#66AFAA;}
	.st22{fill:#6B1E05;}
	.st23{fill:#D0946D;}
	.st24{fill:#D9D9D9;}
	.st25{display:none;}
	.st26{fill:#A92D07;}
	.st27{fill:#DDA06F;}
	.st28{display:inline;fill:url(#SVGID_1_);}
]]>
</style>
<g id="BACKGROUND" class="st25">
	<radialGradient id="SVGID_1_" cx="202.8633" cy="98.2417" r="405.8052" gradientUnits="userSpaceOnUse">
		<stop  offset="0" style="stop-color:#FFFFFF"/>
		<stop  offset="0.2788" style="stop-color:#FBFBFB"/>
		<stop  offset="0.5606" style="stop-color:#EFEFEF"/>
		<stop  offset="0.8428" style="stop-color:#DBDBDB"/>
		<stop  offset="1" style="stop-color:#CCCCCC"/>
	</radialGradient>
	<rect x="-45.86" y="-152.77" class="st28" width="500" height="500"/>
</g>
<g id="OBJECTS">
	<g>
		<g>
			
				<linearGradient id="SVGID_2_" gradientUnits="userSpaceOnUse" x1="3723.2769" y1="578.061" x2="3723.2769" y2="578.061" gradientTransform="matrix(-0.1005 -0.9949 0.9949 -0.1005 197.3389 3763.4956)">
				<stop  offset="0" style="stop-color:#F7C521"/>
				<stop  offset="1" style="stop-color:#FFEA00"/>
			</linearGradient>
			<path class="st11" d="M398.26,1.11"/>
			
				<linearGradient id="SVGID_3_" gradientUnits="userSpaceOnUse" x1="3723.2769" y1="569.9985" x2="3723.2769" y2="569.9985" gradientTransform="matrix(-0.1005 -0.9949 0.9949 -0.1005 197.3389 3763.4956)">
				<stop  offset="0" style="stop-color:#F7C521"/>
				<stop  offset="1" style="stop-color:#FFEA00"/>
			</linearGradient>
			<path class="st12" d="M390.24,1.92"/>
			<g>
				<ellipse class="st19" cx="114.25" cy="184.51" rx="114.25" ry="19.29"/>
				<g>
					<g>
						<path class="st16" d="M196.82,156.73c0,2.56-2.07,4.63-4.63,4.63H35.49c-2.56,0-4.63-2.07-4.63-4.63V55.22
							c0-2.56,2.07-4.63,4.63-4.63h156.69c2.56,0,4.63,2.07,4.63,4.63V156.73z"/>
						<path class="st3" d="M194.42,153.18c0,2.39-2.01,4.33-4.5,4.33H37.75c-2.48,0-4.5-1.94-4.5-4.33V58.12
							c0-2.39,2.02-4.34,4.5-4.34h152.17c2.48,0,4.5,1.94,4.5,4.34V153.18z"/>
						<linearGradient id="SVGID_4_" gradientUnits="userSpaceOnUse" x1="60.0239" y1="152.9751" x2="143.1021" y2="80.4202">
							<stop  offset="0" style="stop-color:#0091BD"/>
							<stop  offset="1" style="stop-color:#6BE8FF"/>
						</linearGradient>
						<rect x="38.23" y="57.72" class="st13" width="151.22" height="96.51"/>
						<polygon class="st8" points="33.26,161.36 10,189.03 220.17,189.03 194.42,161.36 						"/>
						<polygon class="st2" points="38.31,163.97 27.06,178.34 203.52,178.34 191.1,163.97 						"/>
						<polygon class="st2" points="94.35,181.44 91.29,185.35 139.29,185.35 135.91,181.44 						"/>
						<path class="st2" d="M213.62,195.58H16.55c-3.62,0-6.55-2.93-6.55-6.55l0,0h210.17l0,0
							C220.17,192.65,217.24,195.58,213.62,195.58z"/>
						<path class="st10" d="M107.17,157.51H37.75c-2.48,0-4.5-1.94-4.5-4.33V58.12c0-2.39,2.02-4.34,4.5-4.34h42.12L107.17,157.51z"
							/>
					</g>
				</g>
				<g>
					<defs>
						<rect id="SVGID_5_" x="70.63" y="3.91" width="144.03" height="150.26"/>
					</defs>
					<clipPath id="SVGID_6_">
						<use xlink:href="#SVGID_5_"  style="overflow:visible;"/>
					</clipPath>
					<g class="st9">
						<g>
							<path class="st27" d="M103.14,122.87c-1.25,2.04-0.62,4.7,1.41,5.96l14.41,8.88c2.04,1.25,4.76,0.53,5.96-1.41
								c4.54-7.36,6.98-9.17,6.08-13.64C130.44,119.92,103.14,122.87,103.14,122.87z"/>
							<polygon class="st5" points="105.75,166.4 89.57,156.42 104.61,132 120.8,141.98 							"/>
							<polygon class="st27" points="105.75,166.4 97.96,161.59 115.57,133.01 123.36,137.82 							"/>
							<g>
								<circle class="st21" cx="113.36" cy="161.29" r="1.68"/>
								<circle class="st21" cx="109.35" cy="167.79" r="1.68"/>
								<circle class="st21" cx="105.43" cy="174.14" r="1.68"/>
							</g>
						</g>
						
							<ellipse transform="matrix(-0.9507 0.3102 -0.3102 -0.9507 193.397 150.7088)" class="st22" cx="84.72" cy="90.73" rx="9.12" ry="19.96"/>
						<g>
							<path class="st1" d="M200.94,89.08c0.56,1.48-0.02,2.56-1.29,2.44c-36.99-3.26-72.81,3.92-107.05,17.78
								c-1.06,0.44-2.13,0.23-2.4-0.46c-4.4-11.57-7.89-22.91-12.29-34.48c-0.26-0.7-0.51-1.79,0.57-2.17
								c34.8-12.4,66.33-30.83,91.82-57.84c0.87-0.94,2.02-0.52,2.59,0.96C182.23,39.9,191.59,64.49,200.94,89.08z"/>
						</g>
						<path class="st14" d="M200.94,89.08c-5.71-15.02-11.42-30.04-17.13-45.07c-24.73,31.77-73.95,47.11-99.54,48.18
							c1.9,5.53,3.81,11.06,5.94,16.64c0.26,0.7,1.33,0.9,2.4,0.46c34.24-13.86,70.06-21.03,107.05-17.78
							C200.92,91.65,201.5,90.56,200.94,89.08z"/>
						<g>
							<path class="st4" d="M123.36,98.79c-15.58,4.58-25.49,8.52-32.54,11.06c-9.58-11.29-13.17-22.89-13.43-37.72
								c8.81-3.19,20.71-7.78,31.3-12.8C108.12,70.2,115.01,91.17,123.36,98.79z"/>
						</g>
						<path class="st26" d="M198.69,98.88c0.93-0.07,1.83-0.28,2.7-0.6c3.96-1.51,8.58-6.22,8.08-20.11
							c-0.33-9.35-2.94-20.87-7.34-32.44c-4.4-11.57-10.11-21.91-16.07-29.12c-5.96-7.2-11.58-10.65-16.71-10.26
							c-0.93,0.07-1.83,0.27-2.69,0.6c-3.96,1.51-8.58,6.22-8.09,20.11c0.33,9.35,2.94,20.87,7.34,32.44
							c4.4,11.57,10.11,21.91,16.07,29.12C187.94,95.83,193.56,99.28,198.69,98.88z"/>
						<path class="st4" d="M200.94,97.11c3.58-1.36,7.75-5.74,7.28-18.89c-0.33-9.22-2.9-20.6-7.25-32.04
							c-4.35-11.44-9.99-21.66-15.87-28.77c-8.38-10.14-14.41-10.64-17.99-9.28c-3.58,1.36-7.74,5.74-7.28,18.89
							c0.33,9.22,3.65,22.66,7.26,32.04c4.39,11.43,9.99,21.66,15.87,28.77C191.33,97.96,197.36,98.47,200.94,97.11z"/>
						<path class="st7" d="M201.68,93.69c3.2-1.22,6.86-5.32,6.11-17.95c-0.52-8.86-3.13-19.84-7.35-30.93
							c-4.22-11.09-9.56-21.04-15.06-28c-7.83-9.94-13.29-10.57-16.5-9.35c-3.2,1.22-6.86,5.32-6.11,17.95
							c0.52,8.86,3.14,19.84,7.35,30.93c4.22,11.09,9.56,21.04,15.06,28.01C193.01,94.27,198.47,94.91,201.68,93.69z"/>
						
							<ellipse transform="matrix(-0.9347 0.3554 -0.3554 -0.9347 376.2045 35.5017)" class="st20" cx="184.84" cy="52.3" rx="15.19" ry="44.67"/>
						<path class="st24" d="M192.16,50.2c8.18,21.52,10.05,40.77,4.17,43.01c-5.88,2.24-17.28-13.39-25.46-34.91L192.16,50.2z"/>
						<g>
							<g>
								<path class="st4" d="M166.4,44.45c7.05-0.91,13.14-2.14,18.41-3.6c0.48-0.13,0.98,0.05,1.12,0.42
									c2.37,6.03,4.71,11.97,7,17.81c0.14,0.35-0.1,0.79-0.54,1c-5.03,2.44-10.53,5.6-16.5,9.67c-1.63-3.25-3.19-6.71-4.63-10.35
									C169.24,54.26,167.61,49.22,166.4,44.45z"/>
							</g>
							<g>
								<path class="st26" d="M189.44,50.2c1.17,2.98,2.34,5.94,3.49,8.88c0.14,0.35-0.1,0.79-0.54,1
									c-5.12,2.49-10.45,5.72-16.55,9.89c-2.59-5.7-3.84-8.61-5.52-13.08C177.78,54.27,183.77,52.01,189.44,50.2z"/>
							</g>
							
								<ellipse transform="matrix(0.9291 -0.3699 0.3699 0.9291 -5.4084 73.302)" class="st7" cx="188.44" cy="50.75" rx="3.62" ry="10.92"/>
							
								<ellipse transform="matrix(0.9291 -0.3699 0.3699 0.9291 -5.2113 73.4226)" class="st17" cx="188.83" cy="50.3" rx="2.27" ry="9.56"/>
						</g>
						<g>
							<path class="st14" d="M104.02,104.17c1.38,11.39,12.73,37.12,22.67,35.02c12.46-2.63,10.01-7.25,5.52-8.29
								c-4.49-1.04-15.89-19.44-15.41-30.87C113.38,96.88,104.02,104.17,104.02,104.17z"/>
							<path class="st1" d="M100.64,104.17c1.38,11.39,13.66,37.08,23.71,35.59c13.07-1.94,10.01-7.25,5.52-8.29
								c-4.49-1.04-16.54-18.17-16.44-30.57C109.99,97.76,100.64,104.17,100.64,104.17z"/>
							<path class="st14" d="M127.47,130.05c-4.8-4.05-12.34-15.73-13.8-25.73c-1.95,1.3-4.41,3.05-4.77,4.43
								c-0.81-0.25-5.18,0.72-7.02,1.15c3,10.33,10.46,24.75,17.8,28.82C122.59,136.85,125.8,132.5,127.47,130.05z"/>
							<path class="st6" d="M104.85,116.64l7.03-1.5l5.16,2.17l2.09,4.56l1.12,7.33l7.55-2.24l0.75,1.05c0,0-7.93,7.4-10.02,7.7
								c0,0.97-1.12,1.42-1.12,1.42s-2.62-1.72-3.89-2.69C112.25,133.46,104.85,116.64,104.85,116.64z"/>
							<g>
								<path class="st15" d="M118.24,110.72c-0.2,0.05-1.22,0.32-1.22,0.32s2.13,6.52,3.46,7.8
									C125.49,117.52,126.66,117.21,118.24,110.72z"/>
								<path class="st0" d="M117.03,111.04c0.36,2.11,1.98,6.39,3.46,7.8C124.09,117.69,125.45,117.53,117.03,111.04z"/>
							</g>
						</g>
						<path class="st26" d="M123.36,98.79c-2.97-2.71-5.76-7.11-8.09-12.14c-11.54,4.15-25.64,7.97-33.26,9.25
							c2.09,4.83,4.96,9.42,8.81,13.95C97.87,107.31,107.78,103.37,123.36,98.79z"/>
						<g>
							<path class="st5" d="M120.95,100.13c1.4-1.11,3.43-0.87,4.54,0.53l0,0c1.11,1.4,0.87,3.43-0.53,4.54l-9.21,7.29
								c-1.4,1.11-3.43,0.87-4.54-0.53l0,0c-1.11-1.4-0.87-3.43,0.53-4.54L120.95,100.13z"/>
						</g>
						<g>
							<path class="st5" d="M122.58,107.02c1.4-1.11,3.43-0.87,4.54,0.53l0,0c1.11,1.4,0.88,3.43-0.52,4.54l-9.21,7.29
								c-1.4,1.11-3.43,0.87-4.54-0.53l0,0c-1.11-1.4-0.87-3.43,0.53-4.54L122.58,107.02z"/>
						</g>
						<g>
							<path class="st5" d="M124.23,113.94c1.4-1.11,3.43-0.87,4.54,0.53l0,0c1.11,1.4,0.87,3.43-0.53,4.54l-9.21,7.29
								c-1.4,1.11-3.43,0.87-4.54-0.53l0,0c-1.11-1.4-0.87-3.43,0.53-4.54L124.23,113.94z"/>
						</g>
						<g>
							<path class="st5" d="M125.86,120.83c1.4-1.11,3.43-0.87,4.54,0.53l0,0c1.11,1.4,0.87,3.43-0.53,4.54l-9.21,7.29
								c-1.4,1.11-3.43,0.87-4.54-0.53l0,0c-1.11-1.4-0.87-3.43,0.53-4.54L125.86,120.83z"/>
						</g>
						<path class="st5" d="M102.87,116.61l-7.16,0.09l5.07,21.38c0.68,2.85,3.55,4.67,6.4,4l3.5-0.86c0,0,7.03-1.51,5.73-7.01
							C114.93,128,108.72,117.91,102.87,116.61z"/>
						<g>
							<path class="st5" d="M99.89,119.18c-1.88,0.45-3.77-0.72-4.22-2.6l0,0c-0.45-1.88,0.72-3.77,2.6-4.21l10.54-2.5
								c1.88-0.45,3.77,0.72,4.22,2.6l0,0c0.45,1.88-0.72,3.77-2.6,4.22L99.89,119.18z"/>
							<g class="st18">
								<g>
									<path class="st23" d="M122.13,115.61c-0.15-1.52-1.26-2.82-2.84-3.11l-2.93-0.54l-2.97,2.35
										c-1.25,0.99-1.56,2.72-0.83,4.08l4.92,0.91L122.13,115.61z"/>
									<path class="st23" d="M118.02,119.39c1.9,0.35,3.73-0.91,4.08-2.81c0.06-0.32,0.06-0.64,0.03-0.95l-4.62,3.66
										L118.02,119.39z"/>
								</g>
								<g>
									<path class="st23" d="M111.21,111.97c1,1.26,2.74,1.57,4.1,0.81l2.91-2.3l-6.76-1.24c-0.28-0.05-0.56-0.06-0.84-0.04
										C110.38,110.12,110.56,111.15,111.21,111.97z"/>
									<path class="st23" d="M121.77,114.69c0.35-1.9-0.91-3.73-2.81-4.08l-0.68-0.12l-2.53,2.01c-0.14,0.11-0.29,0.2-0.44,0.28
										l-1.94,1.54c-0.7,0.56-1.11,1.35-1.2,2.17l5.53,1.02C119.59,117.85,121.42,116.59,121.77,114.69z"/>
								</g>
							</g>
							<path class="st5" d="M109.17,116.67c-1.9-0.35-3.16-2.18-2.81-4.08l0,0c0.35-1.9,2.18-3.16,4.08-2.81l7.51,1.38
								c1.9,0.35,3.16,2.17,2.81,4.08l0,0c-0.35,1.9-2.18,3.16-4.08,2.81L109.17,116.67z"/>
						</g>
					</g>
				</g>
				<polygon class="st7" points="200.21,22.74 202.16,25.99 227.83,2.27 220.35,0 				"/>
				<polygon class="st7" points="215.81,43.21 241.47,28.26 244.72,38.98 216.78,45.8 				"/>
				<polygon class="st7" points="216.13,64.32 216.46,66.6 246.67,75.37 243.74,65.62 				"/>
			</g>
		</g>
	</g>
</g>
<g id="DESIGNED_BY_FREEPIK">
</g>
</svg>
