<?xml version="1.0" encoding="utf-8"?>
<!-- Generator: Adobe Illustrator 16.0.0, SVG Export Plug-In . SVG Version: 6.00 Build 0)  -->
<!DOCTYPE svg PUBLIC "-//W3C//DTD SVG 1.1//EN" "http://www.w3.org/Graphics/SVG/1.1/DTD/svg11.dtd">
<svg version="1.1" id="OBJECTS" xmlns="http://www.w3.org/2000/svg" xmlns:xlink="http://www.w3.org/1999/xlink" x="0px" y="0px"
	 width="240.44px" height="237.86px" viewBox="0 0 240.44 237.86" style="enable-background:new 0 0 240.44 237.86;"
	 xml:space="preserve">
<style type="text/css">
<![CDATA[
	.st0{fill:none;stroke:url(#SVGID_1_);stroke-width:4.6579;stroke-linecap:round;stroke-miterlimit:10;}
	.st1{fill:none;stroke:url(#SVGID_2_);stroke-width:4.6579;stroke-linecap:round;stroke-miterlimit:10;}
	.st2{fill:none;stroke:url(#SVGID_4_);stroke-width:4.6579;stroke-linecap:round;stroke-miterlimit:10;}
	.st3{fill:none;stroke:url(#SVGID_5_);stroke-width:4.6579;stroke-linecap:round;stroke-miterlimit:10;}
	.st4{fill:none;stroke:#000000;stroke-width:1.8377;stroke-miterlimit:10;}
	.st5{fill:#EE8026;}
	.st6{fill:none;stroke:#EE8026;stroke-width:8;stroke-linecap:round;stroke-miterlimit:10;}
	.st7{fill:none;stroke:url(#SVGID_3_);stroke-width:1.1645;stroke-miterlimit:10;}
	.st8{fill:#2864A5;}
	.st9{fill:none;stroke:#000000;stroke-width:2.1399;stroke-linecap:round;stroke-miterlimit:10;}
	.st10{fill:#FFFFFF;stroke:#636363;stroke-miterlimit:10;}
	.st11{fill:none;stroke:#1663A8;stroke-width:8;stroke-linecap:round;stroke-miterlimit:10;}
	.st12{fill:#FFFFFF;stroke:#636363;stroke-width:3;stroke-miterlimit:10;}
]]>
</style>
<g>
	<g>
		<path class="st10" d="M123.82,198.72c0,0,0.09-0.02,0.24-0.06c0.15-0.04,0.37-0.08,0.62-0.16c0.25-0.07,0.55-0.16,0.87-0.25
			c0.32-0.09,0.66-0.19,0.99-0.31c0.33-0.12,0.67-0.23,0.98-0.34c0.31-0.11,0.59-0.24,0.84-0.34c0.49-0.2,0.82-0.33,0.82-0.33
			s0.32-0.15,0.8-0.37c0.24-0.11,0.52-0.24,0.82-0.39c0.29-0.15,0.6-0.32,0.92-0.49c0.32-0.16,0.62-0.34,0.9-0.51
			c0.28-0.17,0.55-0.33,0.78-0.46c0.23-0.13,0.41-0.27,0.54-0.35c0.13-0.09,0.2-0.13,0.2-0.13s1.16,0.93,2.4,1.8
			c1.22,0.86,2.5,1.67,2.5,1.67s0.2-0.15,0.51-0.38c0.3-0.23,0.69-0.56,1.08-0.88c0.4-0.32,0.77-0.66,1.05-0.92
			c0.28-0.26,0.47-0.43,0.47-0.43s-0.56-1.4-1.21-2.77c-0.64-1.37-1.34-2.67-1.34-2.67s0.06-0.06,0.17-0.18
			c0.1-0.11,0.25-0.28,0.43-0.47c0.18-0.2,0.39-0.42,0.6-0.67c0.21-0.26,0.43-0.53,0.66-0.8c0.45-0.54,0.85-1.13,1.17-1.55
			c0.29-0.44,0.49-0.73,0.49-0.73s0.05-0.07,0.13-0.2c0.08-0.13,0.22-0.31,0.35-0.54c0.26-0.46,0.66-1.05,0.98-1.68
			c0.17-0.31,0.33-0.62,0.49-0.92c0.14-0.3,0.28-0.58,0.39-0.82c0.11-0.24,0.21-0.44,0.27-0.58c0.06-0.14,0.09-0.22,0.09-0.22
			s1.47,0.15,2.98,0.21c0.76,0.04,1.51,0.05,2.07,0.05c0.57,0,0.94,0,0.94,0s0.09-0.24,0.22-0.6c0.14-0.35,0.29-0.84,0.44-1.32
			c0.15-0.48,0.31-0.97,0.39-1.34c0.1-0.37,0.16-0.61,0.16-0.61s-0.31-0.22-0.77-0.54c-0.46-0.32-1.09-0.73-1.73-1.13
			c-1.28-0.81-2.57-1.52-2.57-1.52s0.08-0.34,0.15-0.87c0.04-0.26,0.09-0.57,0.14-0.89c0.05-0.33,0.08-0.68,0.12-1.03
			c0.09-0.7,0.11-1.41,0.15-1.93c0.02-0.26,0.02-0.48,0.02-0.64c0-0.15,0-0.24,0-0.24s0-0.35,0.01-0.88
			c-0.02-0.53-0.03-1.24-0.08-1.94c-0.06-0.7-0.11-1.41-0.2-1.93c-0.07-0.52-0.12-0.87-0.12-0.87s1.32-0.67,2.61-1.44
			c0.65-0.38,1.29-0.77,1.78-1.08c0.48-0.31,0.79-0.51,0.79-0.51s-0.06-0.25-0.15-0.62c-0.1-0.37-0.19-0.87-0.35-1.35
			c-0.14-0.49-0.29-0.97-0.39-1.34c-0.11-0.36-0.2-0.6-0.2-0.6s-1.52-0.06-3.02-0.05c-0.74,0.01-1.5,0.03-2.06,0.06
			c-0.56,0.03-0.93,0.05-0.93,0.05s-0.13-0.33-0.33-0.82c-0.21-0.48-0.51-1.12-0.82-1.76c-0.64-1.26-1.38-2.46-1.38-2.46
			s-0.18-0.31-0.48-0.74c-0.15-0.22-0.32-0.48-0.5-0.75c-0.19-0.27-0.4-0.55-0.61-0.84c-0.41-0.58-0.87-1.11-1.21-1.52
			c-0.17-0.21-0.31-0.37-0.42-0.49c-0.1-0.11-0.16-0.18-0.16-0.18s0.75-1.28,1.44-2.63c0.69-1.34,1.29-2.72,1.29-2.72
			s-0.71-0.73-1.48-1.4c-0.19-0.17-0.38-0.34-0.56-0.5c-0.18-0.15-0.36-0.29-0.5-0.41c-0.29-0.24-0.49-0.4-0.49-0.4
			s-1.3,0.75-2.56,1.59c-1.26,0.83-2.45,1.71-2.45,1.71s-0.07-0.05-0.2-0.14c-0.13-0.09-0.31-0.21-0.53-0.35
			c-0.22-0.15-0.48-0.32-0.75-0.5c-0.28-0.17-0.59-0.35-0.89-0.53c-0.6-0.37-1.24-0.68-1.7-0.94c-0.48-0.23-0.79-0.38-0.79-0.38
			s-0.32-0.16-0.8-0.37c-0.24-0.1-0.53-0.22-0.83-0.35c-0.3-0.13-0.63-0.26-0.96-0.38c-0.33-0.12-0.66-0.24-0.97-0.35
			c-0.32-0.1-0.61-0.19-0.86-0.27c-0.25-0.08-0.46-0.14-0.61-0.19c-0.15-0.04-0.23-0.06-0.23-0.06s-0.06-1.48-0.21-2.98
			c-0.07-0.75-0.16-1.5-0.24-2.06c-0.08-0.56-0.14-0.93-0.14-0.93s-0.25-0.05-0.62-0.13c-0.37-0.08-0.87-0.17-1.37-0.25
			c-1-0.18-2.01-0.27-2.01-0.27s-0.17,0.34-0.42,0.84c-0.25,0.51-0.57,1.18-0.88,1.88c-0.61,1.38-1.14,2.77-1.14,2.77
			s-0.35-0.03-0.88-0.03c-0.53-0.01-1.24-0.02-1.94,0.02c-0.71,0.01-1.41,0.09-1.94,0.13c-0.26,0.02-0.48,0.04-0.64,0.07
			c-0.15,0.02-0.24,0.03-0.24,0.03s-0.35,0.05-0.87,0.12c-0.52,0.08-1.22,0.21-1.91,0.35c-0.68,0.17-1.38,0.31-1.88,0.48
			c-0.51,0.15-0.85,0.25-0.85,0.25s-0.22-0.3-0.55-0.76c-0.33-0.45-0.78-1.04-1.25-1.63c-0.93-1.18-1.94-2.32-1.94-2.32
			s-0.24,0.09-0.59,0.23c-0.35,0.14-0.82,0.33-1.29,0.53c-0.46,0.21-0.92,0.43-1.26,0.59c-0.34,0.16-0.57,0.27-0.57,0.27
			s0.15,1.52,0.38,3c0.11,0.74,0.24,1.47,0.35,2.02c0.11,0.55,0.19,0.92,0.19,0.92s-0.3,0.18-0.76,0.45
			c-0.46,0.26-1.04,0.67-1.63,1.06c-0.57,0.41-1.14,0.83-1.56,1.16c-0.41,0.34-0.68,0.56-0.68,0.56s-0.07,0.06-0.19,0.15
			c-0.12,0.1-0.29,0.24-0.48,0.42c-0.39,0.36-0.92,0.82-1.41,1.33c-0.51,0.49-0.98,1.02-1.33,1.41c-0.36,0.39-0.58,0.67-0.58,0.67
			s-1.37-0.56-2.81-1.04c-0.72-0.25-1.43-0.47-1.97-0.63c-0.54-0.16-0.91-0.26-0.91-0.26s-0.62,0.81-1.17,1.66
			c-0.29,0.42-0.56,0.85-0.75,1.18c-0.2,0.33-0.33,0.54-0.33,0.54s0.24,0.29,0.59,0.73c0.35,0.43,0.85,1.01,1.35,1.58
			c1,1.13,2.04,2.18,2.04,2.18s-0.04,0.08-0.11,0.21c-0.07,0.14-0.16,0.34-0.28,0.58c-0.11,0.24-0.25,0.52-0.39,0.82
			c-0.13,0.31-0.27,0.63-0.4,0.96c-0.14,0.32-0.27,0.65-0.38,0.96c-0.11,0.31-0.22,0.6-0.31,0.85c-0.17,0.5-0.27,0.84-0.27,0.84
			s-0.1,0.34-0.26,0.84c-0.12,0.52-0.33,1.19-0.47,1.88c-0.07,0.35-0.14,0.69-0.21,1.01c-0.05,0.33-0.1,0.63-0.14,0.89
			c-0.04,0.26-0.08,0.48-0.1,0.63c-0.02,0.15-0.03,0.24-0.03,0.24s-1.45,0.27-2.92,0.63c-1.47,0.35-2.91,0.8-2.91,0.8
			s-0.02,0.25-0.04,0.63c-0.01,0.19-0.02,0.41-0.04,0.65c0,0.24-0.01,0.49-0.01,0.75c-0.03,1.02,0.02,2.03,0.02,2.03
			s1.43,0.49,2.87,0.9c1.46,0.41,2.9,0.73,2.9,0.73s0.01,0.09,0.02,0.24c0.01,0.15,0.03,0.37,0.07,0.64
			c0.07,0.52,0.15,1.23,0.3,1.92c0.07,0.35,0.12,0.7,0.2,1.02c0.08,0.32,0.15,0.62,0.21,0.88c0.12,0.52,0.22,0.85,0.22,0.85
			s0.38,1.36,0.87,2.69c0.26,0.66,0.52,1.31,0.73,1.8c0.22,0.48,0.37,0.8,0.37,0.8s-0.27,0.26-0.67,0.65
			c-0.4,0.39-0.94,0.93-1.44,1.47c-1.03,1.08-2.02,2.24-2.02,2.24s0.11,0.23,0.3,0.56c0.19,0.33,0.46,0.76,0.72,1.2
			c0.25,0.44,0.55,0.85,0.76,1.17c0.21,0.32,0.35,0.53,0.35,0.53s0.37-0.09,0.91-0.23c0.55-0.15,1.28-0.35,2-0.57
			c1.44-0.44,2.83-0.94,2.83-0.94s0.22,0.27,0.56,0.68c0.33,0.42,0.8,0.94,1.28,1.46c0.48,0.52,0.99,1,1.37,1.38
			c0.39,0.35,0.65,0.59,0.65,0.59s0.07,0.06,0.18,0.16c0.12,0.1,0.27,0.26,0.48,0.42c0.41,0.33,0.94,0.8,1.52,1.21
			c0.28,0.21,0.56,0.42,0.84,0.61c0.28,0.18,0.53,0.36,0.75,0.5c0.44,0.3,0.74,0.48,0.74,0.48s-0.35,1.44-0.63,2.92
			c-0.14,0.74-0.26,1.49-0.35,2.04c-0.08,0.56-0.13,0.93-0.13,0.93s0.22,0.12,0.56,0.3c0.33,0.19,0.79,0.4,1.25,0.62
			c0.46,0.22,0.92,0.44,1.27,0.58c0.35,0.15,0.58,0.25,0.58,0.25s0.26-0.28,0.64-0.69c0.38-0.41,0.88-0.98,1.37-1.56
			c0.98-1.15,1.87-2.33,1.87-2.33s0.08,0.03,0.23,0.08c0.15,0.05,0.36,0.11,0.61,0.19c0.25,0.08,0.55,0.17,0.86,0.27
			c0.32,0.08,0.66,0.17,1,0.26c0.68,0.19,1.38,0.31,1.89,0.42c0.26,0.06,0.48,0.08,0.63,0.11c0.15,0.02,0.24,0.04,0.24,0.04
			s0.35,0.05,0.87,0.14c0.53,0.05,1.23,0.16,1.93,0.19c0.35,0.02,0.7,0.04,1.03,0.06c0.33,0.01,0.64,0.01,0.9,0.02
			c0.26,0,0.49,0.01,0.64,0.01c0.15,0,0.24,0,0.24,0s0.48,1.4,1.05,2.8c0.56,1.41,1.21,2.77,1.21,2.77s0.25-0.02,0.63-0.05
			c0.38-0.03,0.89-0.07,1.39-0.15c0.5-0.07,1.01-0.13,1.38-0.2c0.38-0.07,0.63-0.12,0.63-0.12s0.28-1.49,0.48-2.97
			C123.71,200.2,123.82,198.72,123.82,198.72z M111.38,193.52c-0.2-0.04-0.45-0.09-0.73-0.15c-0.14-0.03-0.29-0.06-0.45-0.09
			c-0.16-0.04-0.32-0.08-0.5-0.13c-1.38-0.34-3.2-0.95-4.91-1.78c-1.72-0.81-3.33-1.84-4.47-2.69c-0.58-0.41-1.02-0.81-1.35-1.07
			c-0.32-0.27-0.49-0.43-0.49-0.43s-0.18-0.16-0.48-0.44c-0.16-0.14-0.33-0.32-0.53-0.53c-0.2-0.21-0.45-0.43-0.68-0.7
			c-0.98-1.03-2.17-2.52-3.16-4.14c-1-1.61-1.8-3.36-2.31-4.69c-0.23-0.68-0.45-1.23-0.55-1.63c-0.12-0.4-0.18-0.63-0.18-0.63
			s-0.08-0.23-0.17-0.63c-0.1-0.4-0.25-0.98-0.36-1.68c-0.26-1.4-0.46-3.29-0.43-5.19c0.02-1.9,0.29-3.79,0.6-5.18
			c0.06-0.35,0.15-0.67,0.22-0.95c0.07-0.28,0.14-0.53,0.19-0.73c0.13-0.4,0.2-0.62,0.2-0.62s0.07-0.23,0.19-0.62
			c0.07-0.2,0.16-0.43,0.26-0.71c0.1-0.27,0.21-0.58,0.35-0.91c0.54-1.32,1.39-3.03,2.45-4.61c1.05-1.59,2.29-3.03,3.3-4.04
			c1-1.01,1.75-1.6,1.75-1.6s0.18-0.15,0.5-0.42c0.16-0.14,0.36-0.28,0.59-0.45c0.23-0.17,0.49-0.38,0.78-0.57
			c1.16-0.82,2.81-1.79,4.56-2.55c1.75-0.77,3.58-1.32,4.97-1.61c0.35-0.08,0.67-0.13,0.95-0.19c0.28-0.05,0.53-0.11,0.74-0.13
			c0.41-0.06,0.65-0.09,0.65-0.09s0.94-0.14,2.36-0.19c1.42-0.06,3.33,0.01,5.2,0.32c1.88,0.3,3.71,0.83,5.05,1.33
			c0.34,0.12,0.64,0.24,0.91,0.36c0.27,0.11,0.5,0.21,0.69,0.29c0.38,0.18,0.59,0.28,0.59,0.28s0.21,0.1,0.59,0.28
			c0.18,0.1,0.41,0.22,0.66,0.36c0.26,0.13,0.55,0.29,0.85,0.48c1.23,0.72,2.8,1.81,4.21,3.08c1.42,1.26,2.67,2.7,3.52,3.84
			c0.44,0.56,0.76,1.06,0.99,1.41c0.24,0.34,0.35,0.55,0.35,0.55s0.12,0.2,0.33,0.56c0.23,0.35,0.49,0.89,0.83,1.51
			c0.64,1.28,1.37,3.05,1.88,4.88c0.52,1.83,0.8,3.71,0.89,5.13c0.04,0.35,0.03,0.68,0.05,0.97c0.01,0.29,0.03,0.54,0.02,0.75
			c-0.01,0.42-0.01,0.65-0.01,0.65s0,0.24-0.01,0.65c-0.04,0.41-0.04,1.01-0.13,1.72c-0.14,1.42-0.49,3.3-1.06,5.11
			c-0.56,1.82-1.35,3.56-2.03,4.81c-0.08,0.16-0.16,0.31-0.24,0.45c-0.08,0.14-0.16,0.27-0.24,0.4c-0.15,0.25-0.28,0.47-0.39,0.64
			c-0.23,0.35-0.36,0.54-0.36,0.54s-0.13,0.2-0.36,0.54c-0.12,0.17-0.27,0.37-0.44,0.6c-0.17,0.23-0.36,0.5-0.59,0.77
			c-0.88,1.12-2.18,2.51-3.65,3.72c-1.45,1.22-3.05,2.25-4.31,2.94c-0.31,0.17-0.6,0.32-0.86,0.46c-0.26,0.12-0.49,0.23-0.68,0.32
			c-0.38,0.18-0.59,0.28-0.59,0.28s-0.22,0.09-0.61,0.25c-0.19,0.08-0.43,0.17-0.7,0.28c-0.27,0.1-0.58,0.2-0.92,0.32
			c-1.35,0.46-3.2,0.93-5.08,1.17c-1.88,0.25-3.79,0.26-5.21,0.15c-0.36-0.01-0.68-0.06-0.97-0.09c-0.29-0.03-0.54-0.06-0.74-0.08
			c-0.41-0.07-0.65-0.1-0.65-0.1S111.79,193.58,111.38,193.52z"/>
		<circle class="st12" cx="116.13" cy="167.13" r="22.41"/>
	</g>
	<g>
		<g>
			<path class="st10" d="M197.81,130c-0.61-0.85-1.45-1.97-2.32-3.03c-0.37-0.46-0.75-0.9-1.12-1.32c0.19-0.32,0.37-0.63,0.53-0.91
				c0.34-0.57,0.58-1.07,0.76-1.41c0.18-0.34,0.28-0.54,0.28-0.54s0.09-0.2,0.25-0.55c0.16-0.35,0.41-0.85,0.63-1.47
				c0.12-0.31,0.25-0.63,0.38-0.98c0.56,0.03,1.14,0.05,1.73,0.06c1.37,0.02,2.77,0,3.82-0.06c1.04-0.05,1.74-0.11,1.74-0.11
				s0.07-0.25,0.17-0.62c0.05-0.19,0.12-0.4,0.17-0.63c0.05-0.23,0.11-0.48,0.17-0.73c0.06-0.25,0.11-0.5,0.17-0.73
				c0.03-0.12,0.05-0.23,0.08-0.34c0.02-0.11,0.04-0.21,0.05-0.31c0.07-0.38,0.11-0.63,0.11-0.63s-0.6-0.36-1.51-0.87
				c-0.23-0.12-0.47-0.26-0.74-0.4c-0.27-0.14-0.55-0.28-0.84-0.43c-0.58-0.3-1.21-0.6-1.83-0.89c-0.53-0.25-1.07-0.49-1.58-0.71
				c0.05-0.37,0.06-0.73,0.09-1.05c0.06-0.66,0.06-1.21,0.07-1.6c0.01-0.39,0.02-0.61,0.02-0.61s0-0.22-0.01-0.61
				c-0.01-0.39-0.01-0.94-0.07-1.6c-0.01-0.17-0.02-0.34-0.04-0.52c-0.01-0.17-0.03-0.35-0.05-0.54c0.51-0.22,1.05-0.45,1.58-0.7
				c1.25-0.58,2.5-1.21,3.41-1.71c0.91-0.5,1.52-0.86,1.52-0.86s-0.04-0.25-0.11-0.63c-0.07-0.38-0.18-0.88-0.29-1.38
				c-0.06-0.25-0.11-0.5-0.17-0.73c-0.06-0.23-0.12-0.45-0.17-0.63c-0.1-0.37-0.17-0.62-0.17-0.62s-0.17-0.01-0.48-0.04
				c-0.3-0.02-0.74-0.06-1.26-0.08c-1.05-0.06-2.44-0.09-3.81-0.08c-0.58,0.01-1.17,0.02-1.74,0.05c-0.13-0.35-0.25-0.69-0.37-0.99
				c-0.25-0.62-0.48-1.12-0.63-1.48c-0.08-0.18-0.15-0.31-0.19-0.41c-0.04-0.09-0.07-0.14-0.07-0.14s-0.1-0.2-0.27-0.55
				c-0.16-0.35-0.44-0.83-0.75-1.42c-0.16-0.28-0.34-0.59-0.54-0.91c0.37-0.42,0.75-0.87,1.13-1.32c0.45-0.53,0.87-1.07,1.27-1.59
				c0.39-0.51,0.76-1,1.06-1.43c0.61-0.85,1-1.44,1-1.44s-0.04-0.05-0.1-0.15c-0.07-0.09-0.16-0.22-0.28-0.37
				c-0.23-0.31-0.54-0.71-0.85-1.12c-0.33-0.39-0.65-0.79-0.9-1.08c-0.12-0.15-0.23-0.27-0.3-0.36c-0.08-0.08-0.12-0.13-0.12-0.13
				s-0.66,0.25-1.63,0.65c-0.48,0.2-1.04,0.44-1.63,0.71c-0.59,0.27-1.21,0.56-1.83,0.87c-0.53,0.26-1.05,0.54-1.54,0.8
				c-0.27-0.26-0.52-0.51-0.76-0.73c-0.25-0.22-0.48-0.42-0.68-0.6c-0.1-0.09-0.19-0.17-0.28-0.25c-0.09-0.08-0.17-0.14-0.25-0.2
				c-0.3-0.24-0.47-0.38-0.47-0.38s-0.17-0.14-0.47-0.38c-0.31-0.23-0.76-0.55-1.3-0.94c-0.27-0.18-0.57-0.38-0.88-0.58
				c0.15-0.54,0.3-1.11,0.44-1.69c0.33-1.33,0.6-2.69,0.78-3.72c0.18-1.03,0.28-1.73,0.28-1.73s-0.05-0.03-0.15-0.08
				c-0.1-0.05-0.24-0.13-0.41-0.21c-0.34-0.17-0.79-0.41-1.25-0.64c-0.46-0.21-0.93-0.42-1.28-0.58c-0.17-0.08-0.32-0.14-0.42-0.19
				c-0.1-0.05-0.16-0.07-0.16-0.07s-0.49,0.51-1.19,1.29c-0.7,0.78-1.59,1.84-2.44,2.92c-0.36,0.47-0.72,0.94-1.05,1.39
				c-0.35-0.12-0.69-0.24-1-0.33c-0.64-0.18-1.17-0.33-1.54-0.43c-0.38-0.09-0.59-0.13-0.59-0.13s-0.22-0.05-0.59-0.14
				c-0.09-0.02-0.2-0.05-0.31-0.07c-0.11-0.02-0.24-0.04-0.37-0.07c-0.27-0.05-0.56-0.1-0.89-0.16c-0.32-0.05-0.67-0.1-1.05-0.14
				c-0.1-0.55-0.21-1.13-0.33-1.71c-0.14-0.68-0.3-1.35-0.46-1.98c-0.16-0.63-0.32-1.22-0.46-1.72c-0.28-1.01-0.5-1.68-0.5-1.68
				s-0.06,0-0.18-0.01c-0.11,0-0.27-0.01-0.46-0.01c-0.38-0.01-0.9-0.02-1.41-0.03c-0.51,0.01-1.02,0.02-1.41,0.03
				c-0.19,0.01-0.35,0.01-0.46,0.01c-0.11,0.01-0.18,0.01-0.18,0.01s-0.22,0.67-0.5,1.68c-0.14,0.5-0.3,1.09-0.46,1.72
				c-0.16,0.63-0.32,1.3-0.46,1.98c-0.12,0.58-0.24,1.16-0.34,1.71c-0.37,0.04-0.72,0.09-1.05,0.14c-0.65,0.11-1.2,0.19-1.58,0.29
				c-0.38,0.08-0.59,0.13-0.59,0.13s-0.05,0.01-0.15,0.03c-0.1,0.02-0.25,0.05-0.44,0.1c-0.37,0.1-0.91,0.24-1.55,0.43
				c-0.31,0.09-0.65,0.2-1.01,0.32c-0.33-0.46-0.68-0.93-1.04-1.39c-0.84-1.09-1.73-2.15-2.43-2.94c-0.35-0.4-0.64-0.72-0.85-0.94
				c-0.21-0.22-0.33-0.35-0.33-0.35s-0.23,0.1-0.59,0.25c-0.18,0.08-0.38,0.17-0.6,0.26c-0.22,0.09-0.45,0.21-0.68,0.32
				c-0.46,0.23-0.92,0.44-1.26,0.63c-0.34,0.18-0.56,0.31-0.56,0.31s0.09,0.7,0.27,1.72c0.17,1.02,0.45,2.4,0.77,3.74
				c0.14,0.57,0.28,1.14,0.43,1.68c-0.16,0.09-0.31,0.19-0.45,0.29c-0.15,0.1-0.29,0.2-0.43,0.29c-0.56,0.36-0.99,0.71-1.3,0.94
				c-0.31,0.23-0.49,0.37-0.49,0.37s-0.17,0.14-0.47,0.39c-0.3,0.25-0.73,0.59-1.21,1.05c-0.24,0.22-0.51,0.46-0.77,0.72
				c-0.49-0.26-1.01-0.54-1.54-0.8c-0.62-0.31-1.24-0.61-1.83-0.88c-0.3-0.13-0.59-0.26-0.86-0.39c-0.27-0.12-0.53-0.23-0.77-0.33
				c-0.96-0.4-1.62-0.65-1.62-0.65s-0.17,0.19-0.43,0.48c-0.06,0.07-0.13,0.15-0.21,0.23c-0.07,0.09-0.14,0.18-0.22,0.27
				c-0.15,0.19-0.31,0.39-0.47,0.59c-0.16,0.2-0.32,0.4-0.47,0.59c-0.15,0.19-0.28,0.37-0.39,0.53c-0.23,0.31-0.38,0.52-0.38,0.52
				s0.39,0.59,0.99,1.43c0.61,0.85,1.45,1.97,2.32,3.03c0.37,0.46,0.75,0.9,1.12,1.32c-0.19,0.32-0.37,0.63-0.53,0.91
				c-0.35,0.57-0.58,1.07-0.76,1.41c-0.18,0.34-0.28,0.54-0.28,0.54s-0.09,0.2-0.25,0.55c-0.15,0.35-0.4,0.85-0.63,1.47
				c-0.12,0.31-0.25,0.63-0.38,0.98c-0.56-0.03-1.14-0.05-1.73-0.06c-1.37-0.02-2.77,0-3.82,0.06c-1.04,0.05-1.74,0.11-1.74,0.11
				s-0.07,0.25-0.17,0.62c-0.05,0.19-0.12,0.4-0.17,0.63c-0.05,0.23-0.11,0.48-0.17,0.73c-0.06,0.25-0.11,0.5-0.17,0.73
				c-0.03,0.12-0.05,0.23-0.07,0.34c-0.02,0.11-0.04,0.21-0.05,0.31c-0.07,0.38-0.11,0.63-0.11,0.63s0.6,0.36,1.51,0.87
				c0.23,0.12,0.48,0.26,0.74,0.4c0.27,0.14,0.55,0.28,0.84,0.43c0.58,0.3,1.21,0.6,1.83,0.89c0.53,0.25,1.07,0.49,1.58,0.71
				c-0.05,0.37-0.06,0.73-0.09,1.05c-0.06,0.66-0.06,1.21-0.07,1.6c-0.01,0.39-0.02,0.61-0.02,0.61s0,0.22,0.01,0.61
				c0.01,0.39,0.01,0.94,0.07,1.6c0.01,0.17,0.02,0.34,0.04,0.52c0.01,0.17,0.02,0.35,0.05,0.54c-0.51,0.22-1.05,0.46-1.58,0.7
				c-1.25,0.58-2.5,1.21-3.41,1.71c-0.91,0.5-1.52,0.86-1.52,0.86s0.04,0.25,0.11,0.63c0.07,0.38,0.18,0.88,0.29,1.38
				c0.06,0.25,0.1,0.5,0.17,0.73c0.06,0.23,0.12,0.45,0.17,0.63c0.1,0.37,0.17,0.62,0.17,0.62s0.17,0.01,0.48,0.04
				c0.3,0.02,0.74,0.06,1.26,0.08c1.05,0.06,2.44,0.1,3.81,0.08c0.58-0.01,1.17-0.02,1.74-0.05c0.13,0.35,0.25,0.69,0.37,0.99
				c0.25,0.62,0.48,1.12,0.63,1.48c0.08,0.18,0.15,0.31,0.19,0.41c0.05,0.09,0.07,0.14,0.07,0.14s0.1,0.2,0.27,0.55
				c0.16,0.35,0.44,0.83,0.75,1.42c0.16,0.28,0.34,0.59,0.54,0.91c-0.37,0.42-0.75,0.87-1.13,1.32c-0.45,0.53-0.87,1.07-1.27,1.59
				c-0.39,0.51-0.76,1-1.06,1.43c-0.61,0.85-1,1.44-1,1.44s0.04,0.05,0.1,0.15c0.07,0.09,0.16,0.22,0.28,0.37
				c0.23,0.31,0.54,0.71,0.85,1.12c0.33,0.39,0.65,0.79,0.9,1.08c0.12,0.15,0.23,0.27,0.3,0.36c0.08,0.08,0.12,0.13,0.12,0.13
				s0.66-0.25,1.63-0.65c0.48-0.2,1.04-0.44,1.63-0.71c0.59-0.27,1.21-0.56,1.83-0.87c0.53-0.26,1.05-0.54,1.55-0.8
				c0.27,0.26,0.52,0.51,0.76,0.73c0.25,0.22,0.48,0.42,0.68,0.6c0.1,0.09,0.19,0.17,0.28,0.25c0.09,0.08,0.17,0.14,0.25,0.2
				c0.3,0.24,0.47,0.38,0.47,0.38s0.17,0.14,0.47,0.38c0.31,0.23,0.76,0.55,1.3,0.94c0.27,0.18,0.57,0.38,0.88,0.58
				c-0.15,0.54-0.3,1.11-0.44,1.69c-0.33,1.34-0.6,2.69-0.78,3.72c-0.18,1.03-0.28,1.73-0.28,1.73s0.06,0.03,0.15,0.08
				c0.1,0.05,0.24,0.13,0.41,0.21c0.34,0.17,0.79,0.41,1.25,0.64c0.47,0.21,0.93,0.42,1.28,0.58c0.17,0.08,0.32,0.14,0.42,0.19
				c0.1,0.05,0.16,0.07,0.16,0.07s0.49-0.51,1.18-1.29c0.7-0.78,1.59-1.84,2.44-2.92c0.36-0.47,0.72-0.94,1.05-1.39
				c0.35,0.12,0.69,0.24,1,0.33c0.64,0.18,1.17,0.33,1.54,0.43c0.38,0.09,0.59,0.13,0.59,0.13s0.22,0.05,0.59,0.14
				c0.09,0.02,0.2,0.05,0.31,0.07c0.12,0.02,0.24,0.04,0.37,0.07c0.27,0.05,0.57,0.1,0.89,0.16c0.32,0.05,0.67,0.1,1.05,0.14
				c0.1,0.55,0.21,1.13,0.33,1.71c0.14,0.68,0.3,1.35,0.45,1.98c0.16,0.63,0.32,1.22,0.46,1.72c0.28,1.01,0.5,1.68,0.5,1.68
				s0.06,0,0.18,0.01c0.11,0,0.27,0.01,0.46,0.01c0.38,0.01,0.9,0.02,1.41,0.04c0.51-0.01,1.02-0.02,1.41-0.03
				c0.19-0.01,0.35-0.01,0.46-0.01c0.11-0.01,0.18-0.01,0.18-0.01s0.22-0.67,0.5-1.68c0.14-0.5,0.3-1.09,0.46-1.72
				c0.16-0.63,0.32-1.3,0.46-1.98c0.12-0.58,0.24-1.16,0.34-1.71c0.37-0.04,0.72-0.09,1.05-0.14c0.65-0.11,1.2-0.19,1.58-0.29
				c0.38-0.08,0.59-0.13,0.59-0.13s0.05-0.01,0.16-0.03c0.1-0.02,0.25-0.05,0.44-0.1c0.37-0.1,0.91-0.24,1.55-0.43
				c0.31-0.09,0.65-0.2,1.01-0.32c0.33,0.46,0.68,0.93,1.04,1.39c0.84,1.09,1.73,2.15,2.43,2.94c0.35,0.4,0.64,0.72,0.85,0.94
				c0.21,0.22,0.33,0.35,0.33,0.35s0.23-0.1,0.59-0.25c0.18-0.08,0.38-0.17,0.6-0.26c0.22-0.1,0.45-0.21,0.68-0.32
				c0.46-0.23,0.92-0.44,1.26-0.63c0.34-0.18,0.56-0.31,0.56-0.31s-0.09-0.7-0.27-1.72c-0.17-1.02-0.45-2.4-0.77-3.74
				c-0.14-0.57-0.28-1.14-0.43-1.68c0.16-0.09,0.31-0.19,0.45-0.29c0.15-0.1,0.29-0.2,0.43-0.29c0.56-0.36,0.99-0.71,1.3-0.94
				c0.31-0.23,0.49-0.37,0.49-0.37s0.17-0.14,0.47-0.39c0.3-0.25,0.73-0.59,1.21-1.05c0.24-0.22,0.51-0.46,0.77-0.72
				c0.49,0.26,1.01,0.54,1.54,0.8c0.62,0.31,1.24,0.61,1.83,0.88c0.3,0.13,0.59,0.26,0.86,0.39c0.27,0.12,0.53,0.23,0.77,0.33
				c0.96,0.4,1.62,0.65,1.62,0.65s0.17-0.19,0.43-0.48c0.06-0.07,0.13-0.15,0.21-0.23c0.07-0.08,0.14-0.18,0.22-0.27
				c0.15-0.19,0.31-0.39,0.47-0.59c0.16-0.2,0.32-0.4,0.47-0.59c0.15-0.19,0.28-0.37,0.39-0.53c0.23-0.31,0.38-0.52,0.38-0.52
				S198.41,130.85,197.81,130z M156.17,127.3c-10.07-6.28-13.16-19.57-6.88-29.64c6.28-10.07,19.57-13.16,29.64-6.88
				c10.07,6.28,13.16,19.57,6.88,29.64C179.54,130.49,166.24,133.58,156.17,127.3z"/>
		</g>
		<circle class="st12" cx="167.76" cy="109.02" r="18.79"/>
	</g>
	<g>
		<path class="st10" d="M124.97,105.75c-0.55-0.5-1.11-0.98-1.65-1.44c0.18-0.44,0.34-0.86,0.49-1.24c0.32-0.77,0.52-1.45,0.68-1.91
			c0.16-0.46,0.25-0.73,0.25-0.73s0.08-0.27,0.21-0.74c0.13-0.47,0.34-1.14,0.51-1.96c0.09-0.4,0.19-0.84,0.29-1.3
			c0.7-0.07,1.43-0.16,2.17-0.26c1.72-0.23,3.47-0.53,4.76-0.8c1.29-0.26,2.15-0.47,2.15-0.47s0.04-0.32,0.1-0.8
			c0.03-0.24,0.07-0.52,0.1-0.82c0.02-0.3,0.05-0.63,0.07-0.95c0.02-0.32,0.05-0.65,0.07-0.95c0.01-0.15,0.02-0.3,0.03-0.44
			c0-0.14,0.01-0.27,0.01-0.39c0.01-0.49,0.02-0.81,0.02-0.81s-0.82-0.34-2.06-0.79c-0.31-0.11-0.64-0.23-1-0.36
			c-0.36-0.12-0.74-0.25-1.13-0.38c-0.78-0.26-1.62-0.52-2.46-0.77c-0.72-0.21-1.43-0.41-2.11-0.58c-0.01-0.47-0.06-0.92-0.09-1.33
			c-0.05-0.84-0.15-1.53-0.21-2.02c-0.06-0.49-0.1-0.76-0.1-0.76s-0.05-0.28-0.13-0.76c-0.09-0.48-0.19-1.17-0.39-1.99
			c-0.05-0.2-0.09-0.42-0.14-0.64c-0.05-0.22-0.1-0.44-0.16-0.66c0.6-0.37,1.22-0.77,1.85-1.18c1.45-0.96,2.9-1.99,3.94-2.79
			c1.05-0.8,1.73-1.36,1.73-1.36s-0.1-0.31-0.25-0.77c-0.15-0.46-0.4-1.06-0.63-1.67c-0.12-0.3-0.23-0.61-0.35-0.88
			c-0.12-0.28-0.23-0.54-0.33-0.76c-0.2-0.44-0.33-0.74-0.33-0.74s-0.22,0.02-0.6,0.04c-0.38,0.03-0.93,0.07-1.59,0.14
			c-1.32,0.13-3.07,0.35-4.78,0.63c-0.73,0.12-1.46,0.25-2.16,0.39c-0.22-0.42-0.44-0.81-0.65-1.17c-0.42-0.72-0.81-1.31-1.06-1.73
			c-0.13-0.21-0.25-0.36-0.32-0.47c-0.08-0.11-0.11-0.17-0.11-0.17s-0.16-0.23-0.44-0.63c-0.27-0.41-0.71-0.96-1.21-1.63
			c-0.26-0.32-0.54-0.67-0.85-1.03c0.38-0.6,0.78-1.23,1.16-1.87c0.46-0.75,0.89-1.51,1.28-2.23c0.4-0.72,0.75-1.4,1.06-1.99
			c0.6-1.18,0.98-1.99,0.98-1.99s-0.06-0.06-0.15-0.16c-0.1-0.1-0.25-0.24-0.42-0.41c-0.35-0.34-0.81-0.79-1.28-1.24
			c-0.48-0.43-0.97-0.86-1.33-1.18c-0.18-0.16-0.33-0.29-0.44-0.39c-0.11-0.09-0.17-0.14-0.17-0.14s-0.78,0.44-1.91,1.12
			c-0.57,0.34-1.22,0.75-1.91,1.2c-0.69,0.45-1.41,0.93-2.13,1.44c-0.61,0.43-1.21,0.87-1.78,1.3c-0.38-0.28-0.75-0.54-1.09-0.77
			c-0.35-0.23-0.67-0.44-0.96-0.62c-0.14-0.09-0.28-0.18-0.4-0.26c-0.13-0.08-0.24-0.14-0.35-0.21c-0.42-0.25-0.67-0.39-0.67-0.39
			s-0.24-0.14-0.67-0.39c-0.43-0.23-1.06-0.55-1.8-0.94c-0.37-0.18-0.78-0.37-1.22-0.56c0.09-0.7,0.17-1.44,0.23-2.19
			c0.16-1.73,0.23-3.48,0.27-4.81c0.03-1.32,0.02-2.22,0.02-2.22s-0.08-0.03-0.21-0.08c-0.13-0.05-0.32-0.11-0.55-0.19
			c-0.46-0.15-1.07-0.36-1.68-0.56c-0.62-0.18-1.24-0.35-1.71-0.48c-0.23-0.06-0.43-0.12-0.56-0.16c-0.14-0.04-0.21-0.06-0.21-0.06
			s-0.51,0.73-1.24,1.84c-0.72,1.11-1.64,2.6-2.49,4.12c-0.37,0.66-0.72,1.31-1.04,1.94c-0.47-0.09-0.91-0.16-1.32-0.23
			c-0.83-0.1-1.53-0.19-2.01-0.25c-0.49-0.04-0.77-0.06-0.77-0.06s-0.28-0.02-0.77-0.06c-0.12-0.01-0.26-0.02-0.4-0.03
			c-0.15,0-0.31-0.01-0.48-0.01c-0.34-0.01-0.73-0.02-1.15-0.03c-0.41,0-0.86,0.01-1.34,0.02c-0.23-0.67-0.48-1.37-0.74-2.07
			c-0.31-0.83-0.63-1.63-0.94-2.39c-0.32-0.76-0.63-1.46-0.9-2.06c-0.55-1.21-0.94-2.01-0.94-2.01s-0.08,0.01-0.22,0.02
			c-0.14,0.02-0.34,0.04-0.58,0.07c-0.48,0.06-1.13,0.14-1.77,0.22c-0.64,0.11-1.28,0.22-1.75,0.31c-0.24,0.04-0.44,0.08-0.58,0.1
			c-0.14,0.03-0.22,0.05-0.22,0.05s-0.14,0.88-0.31,2.19c-0.08,0.66-0.17,1.42-0.25,2.24c-0.08,0.81-0.15,1.68-0.2,2.56
			c-0.04,0.75-0.08,1.49-0.1,2.2c-0.46,0.13-0.89,0.25-1.28,0.38c-0.8,0.27-1.47,0.47-1.92,0.66c-0.46,0.18-0.72,0.28-0.72,0.28
			s-0.07,0.03-0.19,0.07c-0.12,0.05-0.3,0.11-0.53,0.21c-0.45,0.2-1.09,0.47-1.85,0.83c-0.38,0.18-0.78,0.38-1.2,0.6
			c-0.5-0.51-1.03-1.04-1.56-1.54c-1.25-1.2-2.57-2.36-3.59-3.22c-0.51-0.43-0.94-0.77-1.24-1.01c-0.3-0.24-0.48-0.38-0.48-0.38
			s-0.27,0.17-0.69,0.43c-0.21,0.13-0.45,0.28-0.7,0.44c-0.26,0.16-0.52,0.35-0.79,0.53c-0.53,0.37-1.07,0.73-1.46,1.02
			c-0.39,0.29-0.64,0.49-0.64,0.49s0.25,0.85,0.66,2.1c0.41,1.24,1.01,2.91,1.67,4.53c0.28,0.69,0.57,1.37,0.86,2.02
			c-0.18,0.15-0.35,0.3-0.51,0.45c-0.17,0.15-0.33,0.3-0.48,0.45c-0.63,0.56-1.1,1.07-1.45,1.42c-0.34,0.35-0.54,0.55-0.54,0.55
			s-0.19,0.21-0.51,0.58c-0.32,0.37-0.8,0.88-1.31,1.55c-0.25,0.33-0.55,0.67-0.83,1.05c-0.66-0.24-1.36-0.48-2.07-0.71
			c-0.83-0.27-1.67-0.53-2.46-0.75c-0.4-0.11-0.78-0.22-1.15-0.32c-0.36-0.09-0.71-0.18-1.03-0.27c-1.28-0.32-2.15-0.5-2.15-0.5
			s-0.18,0.27-0.44,0.68c-0.07,0.1-0.14,0.21-0.21,0.33c-0.07,0.12-0.15,0.25-0.22,0.38c-0.15,0.26-0.32,0.54-0.48,0.82
			c-0.16,0.28-0.32,0.56-0.48,0.82c-0.15,0.27-0.27,0.52-0.39,0.73c-0.22,0.43-0.37,0.72-0.37,0.72s0.59,0.66,1.51,1.6
			c0.92,0.95,2.19,2.19,3.48,3.35c0.55,0.5,1.11,0.98,1.65,1.44c-0.18,0.44-0.34,0.86-0.49,1.24c-0.32,0.77-0.52,1.45-0.68,1.91
			c-0.16,0.46-0.25,0.73-0.25,0.73s-0.08,0.27-0.21,0.74c-0.13,0.47-0.34,1.14-0.51,1.96c-0.09,0.4-0.19,0.84-0.29,1.3
			c-0.7,0.07-1.43,0.16-2.17,0.26c-1.72,0.23-3.47,0.53-4.77,0.8c-1.29,0.26-2.15,0.47-2.15,0.47s-0.04,0.32-0.1,0.8
			c-0.03,0.24-0.07,0.52-0.1,0.82c-0.02,0.3-0.05,0.63-0.07,0.95c-0.02,0.32-0.05,0.65-0.07,0.95c-0.01,0.15-0.02,0.3-0.03,0.44
			c0,0.14-0.01,0.27-0.01,0.39C38.01,87.23,38,87.55,38,87.55s0.82,0.34,2.06,0.8c0.31,0.11,0.64,0.23,1,0.36
			c0.36,0.12,0.74,0.25,1.13,0.38c0.78,0.26,1.62,0.52,2.46,0.77c0.72,0.21,1.43,0.41,2.11,0.58c0.01,0.47,0.06,0.92,0.09,1.33
			c0.05,0.84,0.15,1.53,0.21,2.02c0.06,0.49,0.1,0.76,0.1,0.76s0.05,0.28,0.13,0.76c0.09,0.48,0.19,1.17,0.39,1.99
			c0.05,0.2,0.09,0.42,0.14,0.64c0.05,0.22,0.1,0.44,0.16,0.66c-0.6,0.37-1.22,0.77-1.85,1.18c-1.45,0.96-2.9,1.99-3.94,2.79
			c-1.05,0.8-1.73,1.36-1.73,1.36s0.1,0.31,0.25,0.77c0.15,0.46,0.4,1.06,0.63,1.67c0.12,0.3,0.23,0.61,0.35,0.88
			c0.12,0.28,0.23,0.54,0.33,0.76c0.2,0.44,0.33,0.74,0.33,0.74s0.22-0.02,0.6-0.04c0.38-0.03,0.93-0.07,1.59-0.14
			c1.32-0.13,3.07-0.35,4.78-0.63c0.73-0.12,1.46-0.25,2.16-0.39c0.22,0.42,0.44,0.81,0.65,1.17c0.42,0.72,0.81,1.31,1.06,1.73
			c0.13,0.21,0.25,0.36,0.32,0.47c0.07,0.11,0.11,0.17,0.11,0.17s0.16,0.23,0.44,0.63c0.27,0.41,0.71,0.96,1.21,1.63
			c0.26,0.32,0.54,0.67,0.85,1.03c-0.38,0.6-0.78,1.23-1.16,1.87c-0.46,0.75-0.89,1.51-1.28,2.23c-0.39,0.72-0.75,1.4-1.06,1.99
			c-0.6,1.18-0.98,1.99-0.98,1.99s0.06,0.06,0.15,0.16c0.1,0.1,0.24,0.24,0.42,0.41c0.35,0.34,0.81,0.79,1.28,1.24
			c0.48,0.43,0.97,0.86,1.33,1.18c0.18,0.16,0.33,0.29,0.44,0.39c0.11,0.09,0.17,0.14,0.17,0.14s0.78-0.44,1.91-1.12
			c0.57-0.34,1.22-0.75,1.91-1.2c0.69-0.45,1.41-0.93,2.13-1.44c0.61-0.43,1.21-0.87,1.78-1.3c0.38,0.28,0.75,0.54,1.09,0.77
			c0.35,0.23,0.67,0.44,0.96,0.62c0.14,0.09,0.28,0.18,0.4,0.26c0.12,0.08,0.24,0.14,0.35,0.21c0.42,0.25,0.67,0.39,0.67,0.39
			s0.24,0.14,0.67,0.39c0.43,0.23,1.06,0.55,1.8,0.94c0.37,0.18,0.78,0.37,1.22,0.56c-0.09,0.7-0.17,1.44-0.23,2.19
			c-0.16,1.73-0.24,3.48-0.27,4.81c-0.03,1.33-0.02,2.22-0.02,2.22s0.07,0.03,0.21,0.08c0.13,0.05,0.32,0.11,0.55,0.19
			c0.46,0.15,1.07,0.36,1.68,0.57c0.62,0.18,1.24,0.35,1.71,0.48c0.23,0.07,0.43,0.12,0.56,0.16c0.14,0.04,0.22,0.06,0.22,0.06
			s0.51-0.73,1.24-1.84c0.72-1.11,1.64-2.6,2.49-4.12c0.37-0.66,0.72-1.31,1.04-1.94c0.47,0.09,0.91,0.16,1.32,0.23
			c0.83,0.1,1.53,0.19,2.01,0.24c0.49,0.04,0.77,0.06,0.77,0.06s0.28,0.02,0.77,0.06c0.12,0.01,0.26,0.02,0.4,0.03
			c0.15,0,0.31,0.01,0.48,0.01c0.34,0.01,0.73,0.02,1.15,0.03c0.41,0,0.86-0.01,1.34-0.02c0.23,0.67,0.48,1.37,0.74,2.07
			c0.31,0.83,0.63,1.63,0.94,2.39c0.32,0.76,0.63,1.46,0.9,2.06c0.55,1.21,0.94,2.01,0.94,2.01s0.08-0.01,0.22-0.02
			c0.14-0.02,0.34-0.04,0.58-0.07c0.48-0.06,1.13-0.14,1.77-0.22c0.64-0.11,1.28-0.22,1.76-0.31c0.24-0.04,0.44-0.08,0.58-0.1
			c0.14-0.03,0.22-0.05,0.22-0.05s0.14-0.88,0.31-2.19c0.08-0.66,0.17-1.42,0.25-2.24c0.08-0.81,0.15-1.68,0.2-2.56
			c0.04-0.75,0.08-1.49,0.1-2.2c0.46-0.13,0.89-0.25,1.28-0.38c0.8-0.27,1.47-0.47,1.92-0.66c0.46-0.18,0.72-0.28,0.72-0.28
			s0.07-0.02,0.19-0.07c0.12-0.05,0.3-0.11,0.53-0.21c0.45-0.2,1.09-0.47,1.85-0.83c0.37-0.18,0.78-0.38,1.2-0.6
			c0.5,0.51,1.03,1.04,1.56,1.54c1.25,1.2,2.57,2.36,3.59,3.22c0.51,0.43,0.94,0.77,1.24,1.01c0.3,0.24,0.48,0.38,0.48,0.38
			s0.27-0.17,0.69-0.43c0.21-0.13,0.45-0.28,0.7-0.44c0.26-0.16,0.52-0.35,0.79-0.53c0.53-0.37,1.07-0.73,1.46-1.02
			c0.39-0.29,0.64-0.49,0.64-0.49s-0.25-0.85-0.66-2.1c-0.41-1.24-1.01-2.91-1.67-4.53c-0.28-0.69-0.57-1.37-0.86-2.02
			c0.18-0.15,0.35-0.3,0.51-0.45c0.17-0.15,0.33-0.3,0.48-0.45c0.63-0.56,1.1-1.07,1.45-1.42c0.34-0.35,0.54-0.55,0.54-0.55
			s0.19-0.21,0.51-0.58c0.32-0.37,0.8-0.88,1.31-1.55c0.25-0.33,0.55-0.67,0.83-1.05c0.66,0.24,1.36,0.48,2.07,0.71
			c0.83,0.27,1.67,0.53,2.46,0.75c0.4,0.11,0.78,0.22,1.15,0.32c0.36,0.09,0.71,0.18,1.03,0.26c1.28,0.32,2.15,0.51,2.15,0.51
			s0.18-0.27,0.44-0.68c0.07-0.1,0.14-0.21,0.21-0.33c0.07-0.12,0.15-0.25,0.22-0.38c0.15-0.26,0.32-0.54,0.48-0.82
			c0.16-0.28,0.33-0.56,0.48-0.82c0.15-0.27,0.27-0.52,0.39-0.73c0.22-0.43,0.37-0.72,0.37-0.72s-0.59-0.66-1.51-1.6
			C127.53,108.15,126.26,106.92,124.97,105.75z M109.97,111.18c-0.28,0.28-0.67,0.7-1.18,1.15c-0.13,0.12-0.25,0.24-0.39,0.36
			c-0.13,0.13-0.27,0.26-0.43,0.38c-0.3,0.25-0.61,0.52-0.94,0.79c-0.33,0.26-0.69,0.53-1.04,0.8l-0.27,0.21l-0.28,0.19
			c-0.19,0.13-0.37,0.26-0.56,0.39c-1.51,1.02-3.11,1.91-4.34,2.49c-0.62,0.29-1.15,0.51-1.51,0.67c-0.18,0.08-0.33,0.13-0.43,0.17
			c-0.1,0.04-0.15,0.06-0.15,0.06s-0.21,0.08-0.58,0.22c-0.37,0.16-0.92,0.31-1.56,0.54c-1.3,0.4-3.07,0.86-4.87,1.13
			c-1.8,0.27-3.62,0.35-4.98,0.35c-0.34-0.01-0.65-0.02-0.93-0.02c-0.14,0-0.27,0-0.39-0.01c-0.12,0-0.23-0.02-0.33-0.02
			c-0.4-0.03-0.62-0.05-0.62-0.05s-0.23-0.02-0.62-0.04c-0.4-0.05-0.96-0.12-1.64-0.2c-1.35-0.22-3.14-0.58-4.89-1.11
			c-1.75-0.55-3.43-1.26-4.66-1.84c-0.6-0.31-1.11-0.58-1.46-0.76c-0.34-0.2-0.54-0.32-0.54-0.32s-0.2-0.11-0.54-0.31
			c-0.09-0.05-0.18-0.1-0.28-0.17c-0.1-0.07-0.21-0.14-0.32-0.21c-0.23-0.15-0.49-0.32-0.78-0.51c-1.12-0.77-2.58-1.86-3.91-3.1
			c-1.33-1.24-2.53-2.62-3.38-3.68c-0.41-0.55-0.77-0.99-0.99-1.32c-0.23-0.33-0.36-0.52-0.36-0.52s-0.03-0.05-0.09-0.13
			c-0.06-0.09-0.16-0.21-0.26-0.38c-0.21-0.34-0.52-0.82-0.87-1.41c-0.69-1.18-1.51-2.81-2.18-4.51c-0.08-0.21-0.16-0.43-0.24-0.64
			l-0.12-0.32l-0.1-0.32c-0.14-0.43-0.28-0.84-0.41-1.25c-0.11-0.41-0.22-0.81-0.33-1.19c-0.06-0.19-0.1-0.37-0.14-0.55
			c-0.04-0.18-0.08-0.35-0.12-0.52c-0.17-0.66-0.25-1.23-0.32-1.62c-0.07-0.39-0.11-0.62-0.11-0.62s-0.03-0.23-0.08-0.62
			c-0.05-0.4-0.14-0.96-0.17-1.64c-0.02-0.34-0.07-0.71-0.07-1.1c-0.01-0.39-0.02-0.8-0.03-1.23c0.01-0.85,0.02-1.76,0.1-2.67
			c0.02-0.23,0.03-0.45,0.05-0.68c0.03-0.23,0.06-0.45,0.08-0.67c0.03-0.22,0.05-0.44,0.08-0.66c0.01-0.11,0.02-0.22,0.04-0.32
			c0.02-0.11,0.04-0.21,0.06-0.32c0.07-0.42,0.14-0.83,0.21-1.21c0.09-0.38,0.17-0.74,0.24-1.08c0.13-0.67,0.32-1.21,0.42-1.6
			c0.11-0.39,0.17-0.61,0.17-0.61s0.07-0.22,0.2-0.59c0.13-0.38,0.29-0.93,0.56-1.56c0.13-0.32,0.26-0.66,0.41-1.03
			c0.16-0.36,0.33-0.73,0.51-1.12c0.04-0.1,0.09-0.2,0.13-0.29c0.05-0.1,0.1-0.19,0.15-0.29c0.1-0.19,0.2-0.39,0.31-0.59
			c0.1-0.2,0.21-0.4,0.31-0.6c0.11-0.2,0.23-0.39,0.34-0.59c0.44-0.8,0.95-1.55,1.42-2.26c0.25-0.35,0.49-0.68,0.72-1
			c0.23-0.32,0.47-0.59,0.68-0.86c0.41-0.54,0.81-0.96,1.07-1.25c0.26-0.3,0.41-0.47,0.41-0.47s0.16-0.16,0.44-0.45
			c0.28-0.28,0.67-0.7,1.18-1.16c0.12-0.12,0.25-0.24,0.39-0.36c0.13-0.13,0.27-0.26,0.43-0.38c0.3-0.25,0.61-0.52,0.94-0.79
			c0.34-0.26,0.69-0.53,1.04-0.8l0.27-0.21l0.28-0.19c0.19-0.13,0.37-0.26,0.56-0.39c1.51-1.02,3.11-1.91,4.34-2.49
			c0.62-0.29,1.15-0.51,1.51-0.67c0.18-0.08,0.33-0.13,0.43-0.17c0.1-0.04,0.15-0.06,0.15-0.06s0.21-0.08,0.58-0.22
			c0.37-0.16,0.92-0.31,1.56-0.54c1.3-0.4,3.07-0.86,4.87-1.13c1.8-0.27,3.62-0.35,4.98-0.35c0.34,0.01,0.65,0.02,0.93,0.02
			c0.14,0,0.27,0.01,0.39,0.01c0.12,0,0.23,0.02,0.33,0.02c0.4,0.03,0.62,0.05,0.62,0.05s0.23,0.02,0.62,0.04
			c0.4,0.05,0.96,0.12,1.64,0.2c1.35,0.22,3.14,0.58,4.89,1.11c1.75,0.55,3.43,1.26,4.66,1.84c0.61,0.31,1.11,0.58,1.46,0.76
			c0.34,0.2,0.54,0.32,0.54,0.32s0.2,0.11,0.54,0.31c0.09,0.05,0.18,0.1,0.28,0.17c0.1,0.07,0.21,0.14,0.32,0.21
			c0.23,0.15,0.49,0.32,0.78,0.51c1.12,0.77,2.58,1.86,3.91,3.1c1.33,1.24,2.53,2.62,3.38,3.68c0.41,0.55,0.77,0.99,0.99,1.32
			c0.23,0.33,0.36,0.52,0.36,0.52s0.03,0.05,0.09,0.13c0.06,0.09,0.16,0.21,0.26,0.38c0.21,0.34,0.52,0.82,0.87,1.41
			c0.69,1.18,1.51,2.81,2.18,4.51c0.08,0.21,0.16,0.42,0.25,0.64l0.12,0.32l0.1,0.32c0.14,0.43,0.28,0.84,0.41,1.25
			c0.11,0.41,0.22,0.81,0.33,1.19c0.06,0.19,0.1,0.37,0.14,0.55c0.04,0.18,0.08,0.35,0.12,0.52c0.16,0.66,0.25,1.23,0.32,1.62
			c0.07,0.39,0.11,0.62,0.11,0.62s0.03,0.23,0.08,0.62c0.05,0.4,0.14,0.96,0.17,1.64c0.02,0.34,0.07,0.71,0.07,1.1
			c0.01,0.39,0.02,0.8,0.03,1.23c-0.01,0.85-0.02,1.76-0.1,2.67c-0.02,0.23-0.03,0.45-0.05,0.68c-0.03,0.23-0.06,0.45-0.08,0.67
			c-0.03,0.22-0.05,0.44-0.08,0.66c-0.01,0.11-0.02,0.22-0.04,0.32c-0.02,0.11-0.04,0.21-0.06,0.32c-0.07,0.42-0.14,0.83-0.21,1.21
			c-0.09,0.38-0.17,0.74-0.24,1.08c-0.13,0.67-0.32,1.21-0.42,1.6c-0.11,0.39-0.17,0.61-0.17,0.61s-0.07,0.22-0.2,0.59
			c-0.14,0.38-0.29,0.93-0.56,1.56c-0.13,0.32-0.26,0.66-0.41,1.03c-0.16,0.36-0.33,0.73-0.51,1.12c-0.04,0.1-0.09,0.2-0.13,0.29
			c-0.05,0.1-0.1,0.19-0.15,0.29c-0.1,0.19-0.2,0.39-0.31,0.59c-0.1,0.2-0.21,0.4-0.31,0.6c-0.11,0.2-0.23,0.39-0.34,0.59
			c-0.44,0.8-0.95,1.55-1.42,2.26c-0.25,0.35-0.49,0.68-0.72,1c-0.23,0.32-0.47,0.59-0.68,0.86c-0.41,0.54-0.81,0.96-1.07,1.26
			c-0.26,0.3-0.41,0.47-0.41,0.47S110.25,110.9,109.97,111.18z"/>
		<circle class="st12" cx="86.48" cy="88.48" r="28.63"/>
	</g>
</g>
<g>
	<rect x="44.66" y="165.44" class="st4" width="7.46" height="7.46"/>
	<rect x="44.66" y="180.36" class="st4" width="7.46" height="7.46"/>
	<rect x="44.66" y="195.28" class="st4" width="7.46" height="7.46"/>
	<polyline class="st10" points="48.39,169.17 53.43,174.21 63.32,164.32 	"/>
	<polyline class="st10" points="48.39,183.91 53.43,188.94 63.32,179.06 	"/>
	<polyline class="st10" points="48.39,198.64 53.43,203.68 63.32,193.79 	"/>
</g>
<g>
	<path class="st6" d="M230.58,91.8c14.98,61.67-22.86,123.8-84.52,138.79c-15.64,3.8-31.31,4.2-46.23,1.68"/>
	<path class="st11" d="M16.21,170.47c-3.81-7.62-6.83-15.78-8.93-24.41C-7.71,84.4,30.13,22.26,91.8,7.28
		c17.67-4.29,35.37-4.25,51.99-0.55"/>
	<polygon class="st8" points="4.31,168.49 22.4,159.53 22.67,181.93 	"/>
	<polygon class="st5" points="240.44,89.71 221.27,96.03 224.16,73.82 	"/>
</g>
<g>
	<g>
		<linearGradient id="SVGID_1_" gradientUnits="userSpaceOnUse" x1="172.2285" y1="31.3247" x2="185.1669" y2="35.2694">
			<stop  offset="0" style="stop-color:#F1D471"/>
			<stop  offset="1" style="stop-color:#E69633"/>
		</linearGradient>
		<line class="st0" x1="178.7" y1="18.09" x2="178.7" y2="48.5"/>
		<linearGradient id="SVGID_2_" gradientUnits="userSpaceOnUse" x1="173.4536" y1="18.0928" x2="173.4536" y2="18.0928">
			<stop  offset="0" style="stop-color:#F1D471"/>
			<stop  offset="1" style="stop-color:#E69633"/>
		</linearGradient>
		<path class="st1" d="M173.45,18.09"/>
		<linearGradient id="SVGID_3_" gradientUnits="userSpaceOnUse" x1="173.4521" y1="48.502" x2="173.4521" y2="48.502">
			<stop  offset="0" style="stop-color:#F1D471"/>
			<stop  offset="1" style="stop-color:#E69633"/>
		</linearGradient>
		<path class="st7" d="M173.45,48.5"/>
		<linearGradient id="SVGID_4_" gradientUnits="userSpaceOnUse" x1="166.4819" y1="37.2173" x2="176.391" y2="40.2384">
			<stop  offset="0" style="stop-color:#8DE0B2"/>
			<stop  offset="1" style="stop-color:#449458"/>
		</linearGradient>
		<line class="st2" x1="171.44" y1="28.95" x2="171.44" y2="48.5"/>
		<linearGradient id="SVGID_5_" gradientUnits="userSpaceOnUse" x1="160.2666" y1="41.2827" x2="168.0851" y2="43.6664">
			<stop  offset="0" style="stop-color:#00F7FE"/>
			<stop  offset="1" style="stop-color:#00CBFE"/>
		</linearGradient>
		<line class="st3" x1="164.18" y1="36.45" x2="164.18" y2="48.5"/>
	</g>
	<polyline class="st9" points="155.61,32.33 163.65,23.82 166.01,26.18 174.53,17.2 	"/>
	<line class="st9" x1="156.56" y1="53.13" x2="182.09" y2="53.13"/>
</g>
</svg>
